<mxfile host="app.diagrams.net" modified="2023-07-04T12:21:19.633Z" agent="Mozilla/5.0 (Windows NT 10.0; Win64; x64) AppleWebKit/537.36 (KHTML, like Gecko) Chrome/114.0.0.0 Safari/537.36" etag="yvnUXZr2TVO5QXoqPewy" version="21.5.2" type="github">
  <diagram name="Page-1" id="cM-O7VzIuI8APUyh6PXv">
    <mxGraphModel dx="1720" dy="1548" grid="1" gridSize="10" guides="1" tooltips="1" connect="1" arrows="1" fold="1" page="1" pageScale="1" pageWidth="1169" pageHeight="827" math="0" shadow="0">
      <root>
        <mxCell id="0" />
        <mxCell id="1" parent="0" />
        <mxCell id="hfoDs-c5PxvxWzJKswEb-3" value="" style="edgeStyle=orthogonalEdgeStyle;rounded=0;orthogonalLoop=1;jettySize=auto;html=1;" edge="1" parent="1" source="hfoDs-c5PxvxWzJKswEb-1" target="hfoDs-c5PxvxWzJKswEb-2">
          <mxGeometry relative="1" as="geometry">
            <Array as="points">
              <mxPoint x="160" y="330" />
              <mxPoint x="160" y="-780" />
            </Array>
          </mxGeometry>
        </mxCell>
        <mxCell id="hfoDs-c5PxvxWzJKswEb-58" style="edgeStyle=orthogonalEdgeStyle;rounded=0;orthogonalLoop=1;jettySize=auto;html=1;entryX=0;entryY=0.5;entryDx=0;entryDy=0;" edge="1" parent="1" source="hfoDs-c5PxvxWzJKswEb-1" target="hfoDs-c5PxvxWzJKswEb-56">
          <mxGeometry relative="1" as="geometry">
            <Array as="points">
              <mxPoint x="160" y="330" />
              <mxPoint x="160" y="-195" />
            </Array>
          </mxGeometry>
        </mxCell>
        <mxCell id="hfoDs-c5PxvxWzJKswEb-60" style="edgeStyle=orthogonalEdgeStyle;rounded=0;orthogonalLoop=1;jettySize=auto;html=1;entryX=0;entryY=0.5;entryDx=0;entryDy=0;" edge="1" parent="1" source="hfoDs-c5PxvxWzJKswEb-1" target="hfoDs-c5PxvxWzJKswEb-59">
          <mxGeometry relative="1" as="geometry">
            <Array as="points">
              <mxPoint x="160" y="330" />
              <mxPoint x="160" y="-400" />
            </Array>
          </mxGeometry>
        </mxCell>
        <mxCell id="hfoDs-c5PxvxWzJKswEb-62" value="" style="edgeStyle=orthogonalEdgeStyle;rounded=0;orthogonalLoop=1;jettySize=auto;html=1;" edge="1" parent="1" source="hfoDs-c5PxvxWzJKswEb-1" target="hfoDs-c5PxvxWzJKswEb-61">
          <mxGeometry relative="1" as="geometry">
            <Array as="points">
              <mxPoint x="160" y="330" />
              <mxPoint x="160" y="-80" />
            </Array>
          </mxGeometry>
        </mxCell>
        <mxCell id="hfoDs-c5PxvxWzJKswEb-72" value="" style="edgeStyle=orthogonalEdgeStyle;rounded=0;orthogonalLoop=1;jettySize=auto;html=1;" edge="1" parent="1" source="hfoDs-c5PxvxWzJKswEb-1" target="hfoDs-c5PxvxWzJKswEb-71">
          <mxGeometry relative="1" as="geometry">
            <Array as="points">
              <mxPoint x="160" y="330" />
              <mxPoint x="160" y="150" />
            </Array>
          </mxGeometry>
        </mxCell>
        <mxCell id="hfoDs-c5PxvxWzJKswEb-85" value="" style="edgeStyle=orthogonalEdgeStyle;rounded=0;orthogonalLoop=1;jettySize=auto;html=1;" edge="1" parent="1" source="hfoDs-c5PxvxWzJKswEb-1" target="hfoDs-c5PxvxWzJKswEb-84">
          <mxGeometry relative="1" as="geometry">
            <Array as="points">
              <mxPoint x="160" y="330" />
              <mxPoint x="160" y="1460" />
            </Array>
          </mxGeometry>
        </mxCell>
        <mxCell id="hfoDs-c5PxvxWzJKswEb-104" value="" style="edgeStyle=orthogonalEdgeStyle;rounded=0;orthogonalLoop=1;jettySize=auto;html=1;" edge="1" parent="1" source="hfoDs-c5PxvxWzJKswEb-1" target="hfoDs-c5PxvxWzJKswEb-103">
          <mxGeometry relative="1" as="geometry">
            <Array as="points">
              <mxPoint x="160" y="330" />
              <mxPoint x="160" y="30" />
            </Array>
          </mxGeometry>
        </mxCell>
        <mxCell id="hfoDs-c5PxvxWzJKswEb-106" value="" style="edgeStyle=orthogonalEdgeStyle;rounded=0;orthogonalLoop=1;jettySize=auto;html=1;" edge="1" parent="1" source="hfoDs-c5PxvxWzJKswEb-1" target="hfoDs-c5PxvxWzJKswEb-105">
          <mxGeometry relative="1" as="geometry" />
        </mxCell>
        <mxCell id="hfoDs-c5PxvxWzJKswEb-112" value="" style="edgeStyle=orthogonalEdgeStyle;rounded=0;orthogonalLoop=1;jettySize=auto;html=1;" edge="1" parent="1" source="hfoDs-c5PxvxWzJKswEb-1" target="hfoDs-c5PxvxWzJKswEb-111">
          <mxGeometry relative="1" as="geometry">
            <Array as="points">
              <mxPoint x="160" y="330" />
              <mxPoint x="160" y="444" />
            </Array>
          </mxGeometry>
        </mxCell>
        <mxCell id="hfoDs-c5PxvxWzJKswEb-114" value="" style="edgeStyle=orthogonalEdgeStyle;rounded=0;orthogonalLoop=1;jettySize=auto;html=1;" edge="1" parent="1" source="hfoDs-c5PxvxWzJKswEb-1" target="hfoDs-c5PxvxWzJKswEb-113">
          <mxGeometry relative="1" as="geometry">
            <Array as="points">
              <mxPoint x="160" y="330" />
              <mxPoint x="160" y="570" />
            </Array>
          </mxGeometry>
        </mxCell>
        <mxCell id="hfoDs-c5PxvxWzJKswEb-123" value="" style="edgeStyle=orthogonalEdgeStyle;rounded=0;orthogonalLoop=1;jettySize=auto;html=1;" edge="1" parent="1" source="hfoDs-c5PxvxWzJKswEb-1" target="hfoDs-c5PxvxWzJKswEb-122">
          <mxGeometry relative="1" as="geometry">
            <Array as="points">
              <mxPoint x="160" y="330" />
              <mxPoint x="160" y="800" />
            </Array>
          </mxGeometry>
        </mxCell>
        <mxCell id="hfoDs-c5PxvxWzJKswEb-138" value="" style="edgeStyle=orthogonalEdgeStyle;rounded=0;orthogonalLoop=1;jettySize=auto;html=1;" edge="1" parent="1" source="hfoDs-c5PxvxWzJKswEb-1" target="hfoDs-c5PxvxWzJKswEb-137">
          <mxGeometry relative="1" as="geometry">
            <Array as="points">
              <mxPoint x="160" y="330" />
              <mxPoint x="160" y="690" />
            </Array>
          </mxGeometry>
        </mxCell>
        <mxCell id="hfoDs-c5PxvxWzJKswEb-164" style="edgeStyle=orthogonalEdgeStyle;rounded=0;orthogonalLoop=1;jettySize=auto;html=1;entryX=0;entryY=0.5;entryDx=0;entryDy=0;" edge="1" parent="1" source="hfoDs-c5PxvxWzJKswEb-1" target="hfoDs-c5PxvxWzJKswEb-139">
          <mxGeometry relative="1" as="geometry">
            <Array as="points">
              <mxPoint x="160" y="330" />
              <mxPoint x="160" y="1030" />
            </Array>
          </mxGeometry>
        </mxCell>
        <mxCell id="hfoDs-c5PxvxWzJKswEb-170" style="edgeStyle=orthogonalEdgeStyle;rounded=0;orthogonalLoop=1;jettySize=auto;html=1;entryX=0;entryY=0.5;entryDx=0;entryDy=0;" edge="1" parent="1" source="hfoDs-c5PxvxWzJKswEb-1" target="hfoDs-c5PxvxWzJKswEb-167">
          <mxGeometry relative="1" as="geometry">
            <Array as="points">
              <mxPoint x="160" y="330" />
              <mxPoint x="160" y="1230" />
            </Array>
          </mxGeometry>
        </mxCell>
        <mxCell id="hfoDs-c5PxvxWzJKswEb-172" style="edgeStyle=orthogonalEdgeStyle;rounded=0;orthogonalLoop=1;jettySize=auto;html=1;entryX=0;entryY=0.5;entryDx=0;entryDy=0;" edge="1" parent="1" source="hfoDs-c5PxvxWzJKswEb-1" target="hfoDs-c5PxvxWzJKswEb-171">
          <mxGeometry relative="1" as="geometry">
            <Array as="points">
              <mxPoint x="160" y="330" />
              <mxPoint x="160" y="920" />
            </Array>
          </mxGeometry>
        </mxCell>
        <mxCell id="hfoDs-c5PxvxWzJKswEb-180" style="edgeStyle=orthogonalEdgeStyle;rounded=0;orthogonalLoop=1;jettySize=auto;html=1;entryX=0;entryY=0.5;entryDx=0;entryDy=0;" edge="1" parent="1" source="hfoDs-c5PxvxWzJKswEb-1" target="hfoDs-c5PxvxWzJKswEb-173">
          <mxGeometry relative="1" as="geometry">
            <Array as="points">
              <mxPoint x="160" y="330" />
              <mxPoint x="160" y="1740" />
            </Array>
          </mxGeometry>
        </mxCell>
        <mxCell id="hfoDs-c5PxvxWzJKswEb-186" style="edgeStyle=orthogonalEdgeStyle;rounded=0;orthogonalLoop=1;jettySize=auto;html=1;entryX=0;entryY=0.5;entryDx=0;entryDy=0;" edge="1" parent="1" source="hfoDs-c5PxvxWzJKswEb-1" target="hfoDs-c5PxvxWzJKswEb-185">
          <mxGeometry relative="1" as="geometry">
            <Array as="points">
              <mxPoint x="160" y="330" />
              <mxPoint x="160" y="1600" />
            </Array>
          </mxGeometry>
        </mxCell>
        <mxCell id="hfoDs-c5PxvxWzJKswEb-188" style="edgeStyle=orthogonalEdgeStyle;rounded=0;orthogonalLoop=1;jettySize=auto;html=1;entryX=0;entryY=0.5;entryDx=0;entryDy=0;" edge="1" parent="1" source="hfoDs-c5PxvxWzJKswEb-1" target="hfoDs-c5PxvxWzJKswEb-187">
          <mxGeometry relative="1" as="geometry">
            <Array as="points">
              <mxPoint x="160" y="330" />
              <mxPoint x="160" y="1345" />
            </Array>
          </mxGeometry>
        </mxCell>
        <mxCell id="hfoDs-c5PxvxWzJKswEb-190" style="edgeStyle=orthogonalEdgeStyle;rounded=0;orthogonalLoop=1;jettySize=auto;html=1;entryX=0;entryY=0.5;entryDx=0;entryDy=0;" edge="1" parent="1" source="hfoDs-c5PxvxWzJKswEb-1" target="hfoDs-c5PxvxWzJKswEb-189">
          <mxGeometry relative="1" as="geometry">
            <Array as="points">
              <mxPoint x="160" y="330" />
              <mxPoint x="160" y="-500" />
            </Array>
          </mxGeometry>
        </mxCell>
        <mxCell id="hfoDs-c5PxvxWzJKswEb-192" style="edgeStyle=orthogonalEdgeStyle;rounded=0;orthogonalLoop=1;jettySize=auto;html=1;entryX=0;entryY=0.5;entryDx=0;entryDy=0;" edge="1" parent="1" source="hfoDs-c5PxvxWzJKswEb-1" target="hfoDs-c5PxvxWzJKswEb-191">
          <mxGeometry relative="1" as="geometry">
            <Array as="points">
              <mxPoint x="160" y="330" />
              <mxPoint x="160" y="-300" />
            </Array>
          </mxGeometry>
        </mxCell>
        <mxCell id="hfoDs-c5PxvxWzJKswEb-195" style="edgeStyle=orthogonalEdgeStyle;rounded=0;orthogonalLoop=1;jettySize=auto;html=1;entryX=0;entryY=0.5;entryDx=0;entryDy=0;" edge="1" parent="1" source="hfoDs-c5PxvxWzJKswEb-1" target="hfoDs-c5PxvxWzJKswEb-193">
          <mxGeometry relative="1" as="geometry">
            <Array as="points">
              <mxPoint x="160" y="330" />
              <mxPoint x="160" y="-600" />
            </Array>
          </mxGeometry>
        </mxCell>
        <mxCell id="hfoDs-c5PxvxWzJKswEb-196" style="edgeStyle=orthogonalEdgeStyle;rounded=0;orthogonalLoop=1;jettySize=auto;html=1;entryX=0;entryY=0.5;entryDx=0;entryDy=0;" edge="1" parent="1" source="hfoDs-c5PxvxWzJKswEb-1" target="hfoDs-c5PxvxWzJKswEb-194">
          <mxGeometry relative="1" as="geometry">
            <Array as="points">
              <mxPoint x="160" y="330" />
              <mxPoint x="160" y="-690" />
            </Array>
          </mxGeometry>
        </mxCell>
        <mxCell id="hfoDs-c5PxvxWzJKswEb-1" value="Testing Goal" style="rounded=1;whiteSpace=wrap;html=1;" vertex="1" parent="1">
          <mxGeometry x="10" y="300" width="120" height="60" as="geometry" />
        </mxCell>
        <mxCell id="hfoDs-c5PxvxWzJKswEb-5" value="" style="edgeStyle=orthogonalEdgeStyle;rounded=0;orthogonalLoop=1;jettySize=auto;html=1;" edge="1" parent="1" source="hfoDs-c5PxvxWzJKswEb-2" target="hfoDs-c5PxvxWzJKswEb-4">
          <mxGeometry relative="1" as="geometry" />
        </mxCell>
        <mxCell id="hfoDs-c5PxvxWzJKswEb-7" value="" style="edgeStyle=orthogonalEdgeStyle;rounded=0;orthogonalLoop=1;jettySize=auto;html=1;" edge="1" parent="1" source="hfoDs-c5PxvxWzJKswEb-2" target="hfoDs-c5PxvxWzJKswEb-6">
          <mxGeometry relative="1" as="geometry">
            <Array as="points">
              <mxPoint x="400" y="-780" />
              <mxPoint x="400" y="-400" />
            </Array>
          </mxGeometry>
        </mxCell>
        <mxCell id="hfoDs-c5PxvxWzJKswEb-2" value="Functionality testing" style="rounded=1;whiteSpace=wrap;html=1;" vertex="1" parent="1">
          <mxGeometry x="240" y="-810" width="120" height="60" as="geometry" />
        </mxCell>
        <mxCell id="hfoDs-c5PxvxWzJKswEb-37" value="" style="edgeStyle=orthogonalEdgeStyle;rounded=0;orthogonalLoop=1;jettySize=auto;html=1;" edge="1" parent="1" source="hfoDs-c5PxvxWzJKswEb-4" target="hfoDs-c5PxvxWzJKswEb-36">
          <mxGeometry relative="1" as="geometry" />
        </mxCell>
        <mxCell id="hfoDs-c5PxvxWzJKswEb-41" value="" style="edgeStyle=orthogonalEdgeStyle;rounded=0;orthogonalLoop=1;jettySize=auto;html=1;" edge="1" parent="1" source="hfoDs-c5PxvxWzJKswEb-4" target="hfoDs-c5PxvxWzJKswEb-40">
          <mxGeometry relative="1" as="geometry">
            <Array as="points">
              <mxPoint x="640" y="-780" />
              <mxPoint x="640" y="-620" />
            </Array>
          </mxGeometry>
        </mxCell>
        <mxCell id="hfoDs-c5PxvxWzJKswEb-52" value="" style="edgeStyle=orthogonalEdgeStyle;rounded=0;orthogonalLoop=1;jettySize=auto;html=1;" edge="1" parent="1" source="hfoDs-c5PxvxWzJKswEb-4" target="hfoDs-c5PxvxWzJKswEb-51">
          <mxGeometry relative="1" as="geometry">
            <Array as="points">
              <mxPoint x="640" y="-780" />
              <mxPoint x="640" y="-700" />
            </Array>
          </mxGeometry>
        </mxCell>
        <mxCell id="hfoDs-c5PxvxWzJKswEb-55" value="" style="edgeStyle=orthogonalEdgeStyle;rounded=0;orthogonalLoop=1;jettySize=auto;html=1;" edge="1" parent="1" source="hfoDs-c5PxvxWzJKswEb-4" target="hfoDs-c5PxvxWzJKswEb-54">
          <mxGeometry relative="1" as="geometry">
            <Array as="points">
              <mxPoint x="640" y="-780" />
              <mxPoint x="640" y="-540" />
            </Array>
          </mxGeometry>
        </mxCell>
        <mxCell id="hfoDs-c5PxvxWzJKswEb-4" value="Software Code&lt;br&gt;testing" style="rounded=1;whiteSpace=wrap;html=1;" vertex="1" parent="1">
          <mxGeometry x="490" y="-810" width="120" height="60" as="geometry" />
        </mxCell>
        <mxCell id="hfoDs-c5PxvxWzJKswEb-24" value="" style="edgeStyle=orthogonalEdgeStyle;rounded=0;orthogonalLoop=1;jettySize=auto;html=1;" edge="1" parent="1" source="hfoDs-c5PxvxWzJKswEb-6" target="hfoDs-c5PxvxWzJKswEb-23">
          <mxGeometry relative="1" as="geometry">
            <Array as="points">
              <mxPoint x="550" y="-410" />
            </Array>
          </mxGeometry>
        </mxCell>
        <mxCell id="hfoDs-c5PxvxWzJKswEb-69" style="edgeStyle=orthogonalEdgeStyle;rounded=0;orthogonalLoop=1;jettySize=auto;html=1;entryX=0;entryY=0.5;entryDx=0;entryDy=0;" edge="1" parent="1" source="hfoDs-c5PxvxWzJKswEb-6" target="hfoDs-c5PxvxWzJKswEb-121">
          <mxGeometry relative="1" as="geometry">
            <Array as="points">
              <mxPoint x="645" y="-400" />
              <mxPoint x="645" y="-310" />
            </Array>
          </mxGeometry>
        </mxCell>
        <mxCell id="hfoDs-c5PxvxWzJKswEb-6" value="Game mechanics testing" style="rounded=1;whiteSpace=wrap;html=1;" vertex="1" parent="1">
          <mxGeometry x="480" y="-430" width="120" height="60" as="geometry" />
        </mxCell>
        <mxCell id="hfoDs-c5PxvxWzJKswEb-14" value="" style="edgeStyle=orthogonalEdgeStyle;rounded=0;orthogonalLoop=1;jettySize=auto;html=1;entryX=0;entryY=0.5;entryDx=0;entryDy=0;" edge="1" parent="1" source="hfoDs-c5PxvxWzJKswEb-10" target="hfoDs-c5PxvxWzJKswEb-15">
          <mxGeometry relative="1" as="geometry">
            <Array as="points">
              <mxPoint x="1010" y="-520" />
              <mxPoint x="1010" y="-520" />
            </Array>
          </mxGeometry>
        </mxCell>
        <mxCell id="hfoDs-c5PxvxWzJKswEb-17" value="" style="edgeStyle=orthogonalEdgeStyle;rounded=0;orthogonalLoop=1;jettySize=auto;html=1;entryX=0;entryY=0.5;entryDx=0;entryDy=0;" edge="1" parent="1" source="hfoDs-c5PxvxWzJKswEb-10" target="hfoDs-c5PxvxWzJKswEb-13">
          <mxGeometry relative="1" as="geometry">
            <Array as="points">
              <mxPoint x="1000" y="-520" />
              <mxPoint x="1000" y="-590" />
            </Array>
          </mxGeometry>
        </mxCell>
        <mxCell id="hfoDs-c5PxvxWzJKswEb-19" value="" style="edgeStyle=orthogonalEdgeStyle;rounded=0;orthogonalLoop=1;jettySize=auto;html=1;exitX=1;exitY=0.5;exitDx=0;exitDy=0;entryX=0;entryY=0.5;entryDx=0;entryDy=0;" edge="1" parent="1" source="hfoDs-c5PxvxWzJKswEb-10" target="hfoDs-c5PxvxWzJKswEb-18">
          <mxGeometry relative="1" as="geometry">
            <Array as="points">
              <mxPoint x="1000" y="-520" />
              <mxPoint x="1000" y="-450" />
            </Array>
          </mxGeometry>
        </mxCell>
        <mxCell id="hfoDs-c5PxvxWzJKswEb-10" value="Physics&lt;br&gt;testing" style="rounded=1;whiteSpace=wrap;html=1;" vertex="1" parent="1">
          <mxGeometry x="850" y="-550" width="120" height="60" as="geometry" />
        </mxCell>
        <mxCell id="hfoDs-c5PxvxWzJKswEb-13" value="Collision testing" style="rounded=1;whiteSpace=wrap;html=1;" vertex="1" parent="1">
          <mxGeometry x="1040" y="-620" width="120" height="60" as="geometry" />
        </mxCell>
        <mxCell id="hfoDs-c5PxvxWzJKswEb-15" value="Frictions&lt;br&gt;testing" style="rounded=1;whiteSpace=wrap;html=1;" vertex="1" parent="1">
          <mxGeometry x="1040" y="-550" width="120" height="60" as="geometry" />
        </mxCell>
        <mxCell id="hfoDs-c5PxvxWzJKswEb-18" value="Gravity&lt;br&gt;testing" style="rounded=1;whiteSpace=wrap;html=1;" vertex="1" parent="1">
          <mxGeometry x="1040" y="-480" width="120" height="60" as="geometry" />
        </mxCell>
        <mxCell id="hfoDs-c5PxvxWzJKswEb-127" style="edgeStyle=orthogonalEdgeStyle;rounded=0;orthogonalLoop=1;jettySize=auto;html=1;entryX=0;entryY=0.5;entryDx=0;entryDy=0;" edge="1" parent="1" source="hfoDs-c5PxvxWzJKswEb-23" target="hfoDs-c5PxvxWzJKswEb-29">
          <mxGeometry relative="1" as="geometry" />
        </mxCell>
        <mxCell id="hfoDs-c5PxvxWzJKswEb-128" style="edgeStyle=orthogonalEdgeStyle;rounded=0;orthogonalLoop=1;jettySize=auto;html=1;entryX=0;entryY=0.5;entryDx=0;entryDy=0;" edge="1" parent="1" source="hfoDs-c5PxvxWzJKswEb-23" target="hfoDs-c5PxvxWzJKswEb-10">
          <mxGeometry relative="1" as="geometry" />
        </mxCell>
        <mxCell id="hfoDs-c5PxvxWzJKswEb-23" value="3D / 2D testing" style="rounded=1;whiteSpace=wrap;html=1;" vertex="1" parent="1">
          <mxGeometry x="680" y="-430" width="120" height="60" as="geometry" />
        </mxCell>
        <mxCell id="hfoDs-c5PxvxWzJKswEb-26" value="" style="edgeStyle=orthogonalEdgeStyle;rounded=0;orthogonalLoop=1;jettySize=auto;html=1;" edge="1" parent="1" source="hfoDs-c5PxvxWzJKswEb-29" target="hfoDs-c5PxvxWzJKswEb-30">
          <mxGeometry relative="1" as="geometry">
            <Array as="points">
              <mxPoint x="1000" y="-290" />
              <mxPoint x="1000" y="-360" />
            </Array>
          </mxGeometry>
        </mxCell>
        <mxCell id="hfoDs-c5PxvxWzJKswEb-27" value="" style="edgeStyle=orthogonalEdgeStyle;rounded=0;orthogonalLoop=1;jettySize=auto;html=1;" edge="1" parent="1" source="hfoDs-c5PxvxWzJKswEb-29" target="hfoDs-c5PxvxWzJKswEb-31">
          <mxGeometry relative="1" as="geometry">
            <Array as="points">
              <mxPoint x="1030" y="-290" />
              <mxPoint x="1030" y="-290" />
            </Array>
          </mxGeometry>
        </mxCell>
        <mxCell id="hfoDs-c5PxvxWzJKswEb-28" value="" style="edgeStyle=orthogonalEdgeStyle;rounded=0;orthogonalLoop=1;jettySize=auto;html=1;exitX=1;exitY=0.5;exitDx=0;exitDy=0;entryX=0;entryY=0.5;entryDx=0;entryDy=0;" edge="1" parent="1" source="hfoDs-c5PxvxWzJKswEb-29" target="hfoDs-c5PxvxWzJKswEb-32">
          <mxGeometry relative="1" as="geometry">
            <Array as="points">
              <mxPoint x="1000" y="-290" />
              <mxPoint x="1000" y="-220" />
            </Array>
          </mxGeometry>
        </mxCell>
        <mxCell id="hfoDs-c5PxvxWzJKswEb-29" value="Natural phenomena&lt;br&gt;testing" style="rounded=1;whiteSpace=wrap;html=1;" vertex="1" parent="1">
          <mxGeometry x="850" y="-320" width="120" height="60" as="geometry" />
        </mxCell>
        <mxCell id="hfoDs-c5PxvxWzJKswEb-30" value="Wind testing" style="rounded=1;whiteSpace=wrap;html=1;" vertex="1" parent="1">
          <mxGeometry x="1040" y="-390" width="120" height="60" as="geometry" />
        </mxCell>
        <mxCell id="hfoDs-c5PxvxWzJKswEb-31" value="Cloud testing" style="rounded=1;whiteSpace=wrap;html=1;" vertex="1" parent="1">
          <mxGeometry x="1040" y="-320" width="120" height="60" as="geometry" />
        </mxCell>
        <mxCell id="hfoDs-c5PxvxWzJKswEb-32" value="Wave testing" style="rounded=1;whiteSpace=wrap;html=1;" vertex="1" parent="1">
          <mxGeometry x="1040" y="-250" width="120" height="60" as="geometry" />
        </mxCell>
        <mxCell id="hfoDs-c5PxvxWzJKswEb-36" value="Payment gateway testing" style="rounded=1;whiteSpace=wrap;html=1;" vertex="1" parent="1">
          <mxGeometry x="690" y="-810" width="120" height="60" as="geometry" />
        </mxCell>
        <mxCell id="hfoDs-c5PxvxWzJKswEb-40" value="UI functionality&lt;br style=&quot;border-color: var(--border-color);&quot;&gt;testing" style="rounded=1;whiteSpace=wrap;html=1;" vertex="1" parent="1">
          <mxGeometry x="690" y="-650" width="120" height="60" as="geometry" />
        </mxCell>
        <mxCell id="hfoDs-c5PxvxWzJKswEb-51" value="Social network testing" style="rounded=1;whiteSpace=wrap;html=1;" vertex="1" parent="1">
          <mxGeometry x="690" y="-730" width="120" height="60" as="geometry" />
        </mxCell>
        <mxCell id="hfoDs-c5PxvxWzJKswEb-54" value="Installation testing" style="rounded=1;whiteSpace=wrap;html=1;" vertex="1" parent="1">
          <mxGeometry x="690" y="-570" width="120" height="60" as="geometry" />
        </mxCell>
        <mxCell id="hfoDs-c5PxvxWzJKswEb-56" value="Balance testing" style="rounded=1;whiteSpace=wrap;html=1;" vertex="1" parent="1">
          <mxGeometry x="240" y="-225" width="120" height="60" as="geometry" />
        </mxCell>
        <mxCell id="hfoDs-c5PxvxWzJKswEb-59" value="Regression testing" style="rounded=1;whiteSpace=wrap;html=1;" vertex="1" parent="1">
          <mxGeometry x="240" y="-430" width="120" height="60" as="geometry" />
        </mxCell>
        <mxCell id="hfoDs-c5PxvxWzJKswEb-64" value="" style="edgeStyle=orthogonalEdgeStyle;rounded=0;orthogonalLoop=1;jettySize=auto;html=1;" edge="1" parent="1" source="hfoDs-c5PxvxWzJKswEb-61" target="hfoDs-c5PxvxWzJKswEb-63">
          <mxGeometry relative="1" as="geometry">
            <Array as="points">
              <mxPoint x="420" y="-80" />
              <mxPoint x="420" y="-200" />
            </Array>
          </mxGeometry>
        </mxCell>
        <mxCell id="hfoDs-c5PxvxWzJKswEb-66" value="" style="edgeStyle=orthogonalEdgeStyle;rounded=0;orthogonalLoop=1;jettySize=auto;html=1;" edge="1" parent="1" source="hfoDs-c5PxvxWzJKswEb-61" target="hfoDs-c5PxvxWzJKswEb-65">
          <mxGeometry relative="1" as="geometry">
            <Array as="points">
              <mxPoint x="420" y="-80" />
              <mxPoint x="420" y="50" />
            </Array>
          </mxGeometry>
        </mxCell>
        <mxCell id="hfoDs-c5PxvxWzJKswEb-68" value="" style="edgeStyle=orthogonalEdgeStyle;rounded=0;orthogonalLoop=1;jettySize=auto;html=1;" edge="1" parent="1" source="hfoDs-c5PxvxWzJKswEb-61" target="hfoDs-c5PxvxWzJKswEb-67">
          <mxGeometry relative="1" as="geometry" />
        </mxCell>
        <mxCell id="hfoDs-c5PxvxWzJKswEb-61" value="Flow testing" style="rounded=1;whiteSpace=wrap;html=1;" vertex="1" parent="1">
          <mxGeometry x="240" y="-110" width="120" height="60" as="geometry" />
        </mxCell>
        <mxCell id="hfoDs-c5PxvxWzJKswEb-63" value="Learnability testing" style="rounded=1;whiteSpace=wrap;html=1;" vertex="1" parent="1">
          <mxGeometry x="480" y="-225" width="120" height="60" as="geometry" />
        </mxCell>
        <mxCell id="hfoDs-c5PxvxWzJKswEb-65" value="Progression testing" style="rounded=1;whiteSpace=wrap;html=1;" vertex="1" parent="1">
          <mxGeometry x="480" y="5" width="120" height="60" as="geometry" />
        </mxCell>
        <mxCell id="hfoDs-c5PxvxWzJKswEb-67" value="Game design correctness" style="rounded=1;whiteSpace=wrap;html=1;" vertex="1" parent="1">
          <mxGeometry x="585" y="-110" width="120" height="60" as="geometry" />
        </mxCell>
        <mxCell id="hfoDs-c5PxvxWzJKswEb-74" value="" style="edgeStyle=orthogonalEdgeStyle;rounded=0;orthogonalLoop=1;jettySize=auto;html=1;" edge="1" parent="1" source="hfoDs-c5PxvxWzJKswEb-71" target="hfoDs-c5PxvxWzJKswEb-73">
          <mxGeometry relative="1" as="geometry" />
        </mxCell>
        <mxCell id="hfoDs-c5PxvxWzJKswEb-76" value="" style="edgeStyle=orthogonalEdgeStyle;rounded=0;orthogonalLoop=1;jettySize=auto;html=1;" edge="1" parent="1" source="hfoDs-c5PxvxWzJKswEb-71" target="hfoDs-c5PxvxWzJKswEb-75">
          <mxGeometry relative="1" as="geometry" />
        </mxCell>
        <mxCell id="hfoDs-c5PxvxWzJKswEb-71" value="Multiplayer testing" style="rounded=1;whiteSpace=wrap;html=1;" vertex="1" parent="1">
          <mxGeometry x="240" y="120" width="120" height="60" as="geometry" />
        </mxCell>
        <mxCell id="hfoDs-c5PxvxWzJKswEb-73" value="Multiplayer design testing" style="rounded=1;whiteSpace=wrap;html=1;" vertex="1" parent="1">
          <mxGeometry x="480" y="90" width="120" height="60" as="geometry" />
        </mxCell>
        <mxCell id="hfoDs-c5PxvxWzJKswEb-78" value="" style="edgeStyle=orthogonalEdgeStyle;rounded=0;orthogonalLoop=1;jettySize=auto;html=1;" edge="1" parent="1" source="hfoDs-c5PxvxWzJKswEb-75" target="hfoDs-c5PxvxWzJKswEb-77">
          <mxGeometry relative="1" as="geometry" />
        </mxCell>
        <mxCell id="hfoDs-c5PxvxWzJKswEb-80" value="" style="edgeStyle=orthogonalEdgeStyle;rounded=0;orthogonalLoop=1;jettySize=auto;html=1;" edge="1" parent="1" source="hfoDs-c5PxvxWzJKswEb-75" target="hfoDs-c5PxvxWzJKswEb-79">
          <mxGeometry relative="1" as="geometry" />
        </mxCell>
        <mxCell id="hfoDs-c5PxvxWzJKswEb-75" value="Network testing" style="rounded=1;whiteSpace=wrap;html=1;" vertex="1" parent="1">
          <mxGeometry x="480" y="180" width="120" height="60" as="geometry" />
        </mxCell>
        <mxCell id="hfoDs-c5PxvxWzJKswEb-77" value="Network stability testing" style="rounded=1;whiteSpace=wrap;html=1;" vertex="1" parent="1">
          <mxGeometry x="680" y="150" width="120" height="60" as="geometry" />
        </mxCell>
        <mxCell id="hfoDs-c5PxvxWzJKswEb-79" value="Network capacity testing" style="rounded=1;whiteSpace=wrap;html=1;" vertex="1" parent="1">
          <mxGeometry x="680" y="230" width="120" height="60" as="geometry" />
        </mxCell>
        <mxCell id="hfoDs-c5PxvxWzJKswEb-87" value="" style="edgeStyle=orthogonalEdgeStyle;rounded=0;orthogonalLoop=1;jettySize=auto;html=1;" edge="1" parent="1" source="hfoDs-c5PxvxWzJKswEb-84" target="hfoDs-c5PxvxWzJKswEb-86">
          <mxGeometry relative="1" as="geometry">
            <Array as="points">
              <mxPoint x="370" y="1460" />
              <mxPoint x="370" y="1380" />
            </Array>
          </mxGeometry>
        </mxCell>
        <mxCell id="hfoDs-c5PxvxWzJKswEb-102" value="" style="edgeStyle=orthogonalEdgeStyle;rounded=0;orthogonalLoop=1;jettySize=auto;html=1;" edge="1" parent="1" source="hfoDs-c5PxvxWzJKswEb-84" target="hfoDs-c5PxvxWzJKswEb-101">
          <mxGeometry relative="1" as="geometry" />
        </mxCell>
        <mxCell id="hfoDs-c5PxvxWzJKswEb-84" value="UX testing" style="rounded=1;whiteSpace=wrap;html=1;" vertex="1" parent="1">
          <mxGeometry x="240" y="1430" width="120" height="60" as="geometry" />
        </mxCell>
        <mxCell id="hfoDs-c5PxvxWzJKswEb-90" value="" style="edgeStyle=orthogonalEdgeStyle;rounded=0;orthogonalLoop=1;jettySize=auto;html=1;" edge="1" parent="1" source="hfoDs-c5PxvxWzJKswEb-86" target="hfoDs-c5PxvxWzJKswEb-89">
          <mxGeometry relative="1" as="geometry" />
        </mxCell>
        <mxCell id="hfoDs-c5PxvxWzJKswEb-92" value="" style="edgeStyle=orthogonalEdgeStyle;rounded=0;orthogonalLoop=1;jettySize=auto;html=1;" edge="1" parent="1" source="hfoDs-c5PxvxWzJKswEb-86" target="hfoDs-c5PxvxWzJKswEb-91">
          <mxGeometry relative="1" as="geometry" />
        </mxCell>
        <mxCell id="hfoDs-c5PxvxWzJKswEb-86" value="Usability testing" style="rounded=1;whiteSpace=wrap;html=1;" vertex="1" parent="1">
          <mxGeometry x="410" y="1350" width="120" height="60" as="geometry" />
        </mxCell>
        <mxCell id="hfoDs-c5PxvxWzJKswEb-89" value="Usability" style="rounded=1;whiteSpace=wrap;html=1;" vertex="1" parent="1">
          <mxGeometry x="570" y="1315" width="120" height="60" as="geometry" />
        </mxCell>
        <mxCell id="hfoDs-c5PxvxWzJKswEb-91" value="Playability" style="rounded=1;whiteSpace=wrap;html=1;" vertex="1" parent="1">
          <mxGeometry x="570" y="1385" width="120" height="60" as="geometry" />
        </mxCell>
        <mxCell id="hfoDs-c5PxvxWzJKswEb-101" value="Fun Factor testing" style="rounded=1;whiteSpace=wrap;html=1;" vertex="1" parent="1">
          <mxGeometry x="410" y="1430" width="120" height="60" as="geometry" />
        </mxCell>
        <mxCell id="hfoDs-c5PxvxWzJKswEb-103" value="Mobilte testing" style="rounded=1;whiteSpace=wrap;html=1;" vertex="1" parent="1">
          <mxGeometry x="240" width="120" height="60" as="geometry" />
        </mxCell>
        <mxCell id="hfoDs-c5PxvxWzJKswEb-108" value="" style="edgeStyle=orthogonalEdgeStyle;rounded=0;orthogonalLoop=1;jettySize=auto;html=1;" edge="1" parent="1" source="hfoDs-c5PxvxWzJKswEb-105" target="hfoDs-c5PxvxWzJKswEb-107">
          <mxGeometry relative="1" as="geometry" />
        </mxCell>
        <mxCell id="hfoDs-c5PxvxWzJKswEb-105" value="Performance testing" style="rounded=1;whiteSpace=wrap;html=1;" vertex="1" parent="1">
          <mxGeometry x="230" y="300" width="120" height="60" as="geometry" />
        </mxCell>
        <mxCell id="hfoDs-c5PxvxWzJKswEb-107" value="Graphic performance testing" style="rounded=1;whiteSpace=wrap;html=1;" vertex="1" parent="1">
          <mxGeometry x="480" y="300" width="120" height="60" as="geometry" />
        </mxCell>
        <mxCell id="hfoDs-c5PxvxWzJKswEb-111" value="Explorative testing" style="rounded=1;whiteSpace=wrap;html=1;" vertex="1" parent="1">
          <mxGeometry x="230" y="414" width="120" height="60" as="geometry" />
        </mxCell>
        <mxCell id="hfoDs-c5PxvxWzJKswEb-116" value="" style="edgeStyle=orthogonalEdgeStyle;rounded=0;orthogonalLoop=1;jettySize=auto;html=1;" edge="1" parent="1" source="hfoDs-c5PxvxWzJKswEb-113" target="hfoDs-c5PxvxWzJKswEb-115">
          <mxGeometry relative="1" as="geometry">
            <Array as="points">
              <mxPoint x="440" y="570" />
              <mxPoint x="440" y="570" />
            </Array>
          </mxGeometry>
        </mxCell>
        <mxCell id="hfoDs-c5PxvxWzJKswEb-118" value="" style="edgeStyle=orthogonalEdgeStyle;rounded=0;orthogonalLoop=1;jettySize=auto;html=1;" edge="1" parent="1" source="hfoDs-c5PxvxWzJKswEb-113" target="hfoDs-c5PxvxWzJKswEb-117">
          <mxGeometry relative="1" as="geometry">
            <Array as="points">
              <mxPoint x="400" y="570" />
              <mxPoint x="400" y="650" />
            </Array>
          </mxGeometry>
        </mxCell>
        <mxCell id="hfoDs-c5PxvxWzJKswEb-120" value="" style="edgeStyle=orthogonalEdgeStyle;rounded=0;orthogonalLoop=1;jettySize=auto;html=1;" edge="1" parent="1" source="hfoDs-c5PxvxWzJKswEb-113" target="hfoDs-c5PxvxWzJKswEb-119">
          <mxGeometry relative="1" as="geometry">
            <Array as="points">
              <mxPoint x="400" y="570" />
              <mxPoint x="400" y="490" />
            </Array>
          </mxGeometry>
        </mxCell>
        <mxCell id="hfoDs-c5PxvxWzJKswEb-113" value="Visual testing" style="rounded=1;whiteSpace=wrap;html=1;" vertex="1" parent="1">
          <mxGeometry x="230" y="540" width="120" height="60" as="geometry" />
        </mxCell>
        <mxCell id="hfoDs-c5PxvxWzJKswEb-115" value="Rendering testing" style="rounded=1;whiteSpace=wrap;html=1;" vertex="1" parent="1">
          <mxGeometry x="465" y="540" width="120" height="60" as="geometry" />
        </mxCell>
        <mxCell id="hfoDs-c5PxvxWzJKswEb-117" value="Animation testing" style="rounded=1;whiteSpace=wrap;html=1;" vertex="1" parent="1">
          <mxGeometry x="465" y="620" width="120" height="60" as="geometry" />
        </mxCell>
        <mxCell id="hfoDs-c5PxvxWzJKswEb-119" value="UI testing" style="rounded=1;whiteSpace=wrap;html=1;" vertex="1" parent="1">
          <mxGeometry x="465" y="460" width="120" height="60" as="geometry" />
        </mxCell>
        <mxCell id="hfoDs-c5PxvxWzJKswEb-121" value="Game design correctness" style="rounded=1;whiteSpace=wrap;html=1;" vertex="1" parent="1">
          <mxGeometry x="680" y="-340" width="120" height="60" as="geometry" />
        </mxCell>
        <mxCell id="hfoDs-c5PxvxWzJKswEb-134" style="edgeStyle=orthogonalEdgeStyle;rounded=0;orthogonalLoop=1;jettySize=auto;html=1;" edge="1" parent="1" source="hfoDs-c5PxvxWzJKswEb-122" target="hfoDs-c5PxvxWzJKswEb-131">
          <mxGeometry relative="1" as="geometry" />
        </mxCell>
        <mxCell id="hfoDs-c5PxvxWzJKswEb-135" style="edgeStyle=orthogonalEdgeStyle;rounded=0;orthogonalLoop=1;jettySize=auto;html=1;entryX=0;entryY=0.5;entryDx=0;entryDy=0;" edge="1" parent="1" source="hfoDs-c5PxvxWzJKswEb-122" target="hfoDs-c5PxvxWzJKswEb-133">
          <mxGeometry relative="1" as="geometry" />
        </mxCell>
        <mxCell id="hfoDs-c5PxvxWzJKswEb-136" style="edgeStyle=orthogonalEdgeStyle;rounded=0;orthogonalLoop=1;jettySize=auto;html=1;entryX=0;entryY=0.5;entryDx=0;entryDy=0;" edge="1" parent="1" source="hfoDs-c5PxvxWzJKswEb-122" target="hfoDs-c5PxvxWzJKswEb-132">
          <mxGeometry relative="1" as="geometry" />
        </mxCell>
        <mxCell id="hfoDs-c5PxvxWzJKswEb-122" value="Combinatorial testing" style="rounded=1;whiteSpace=wrap;html=1;" vertex="1" parent="1">
          <mxGeometry x="240" y="770" width="120" height="60" as="geometry" />
        </mxCell>
        <mxCell id="hfoDs-c5PxvxWzJKswEb-131" value="Pair testing" style="rounded=1;whiteSpace=wrap;html=1;" vertex="1" parent="1">
          <mxGeometry x="465" y="770" width="120" height="60" as="geometry" />
        </mxCell>
        <mxCell id="hfoDs-c5PxvxWzJKswEb-132" value="Catalogue-based testing" style="rounded=1;whiteSpace=wrap;html=1;" vertex="1" parent="1">
          <mxGeometry x="465" y="850" width="120" height="60" as="geometry" />
        </mxCell>
        <mxCell id="hfoDs-c5PxvxWzJKswEb-133" value="Category partition testing" style="rounded=1;whiteSpace=wrap;html=1;" vertex="1" parent="1">
          <mxGeometry x="465" y="690" width="120" height="60" as="geometry" />
        </mxCell>
        <mxCell id="hfoDs-c5PxvxWzJKswEb-137" value="Load / Stress &lt;br&gt;testing" style="rounded=1;whiteSpace=wrap;html=1;" vertex="1" parent="1">
          <mxGeometry x="230" y="660" width="120" height="60" as="geometry" />
        </mxCell>
        <mxCell id="hfoDs-c5PxvxWzJKswEb-141" value="" style="edgeStyle=orthogonalEdgeStyle;rounded=0;orthogonalLoop=1;jettySize=auto;html=1;" edge="1" parent="1" source="hfoDs-c5PxvxWzJKswEb-139" target="hfoDs-c5PxvxWzJKswEb-140">
          <mxGeometry relative="1" as="geometry" />
        </mxCell>
        <mxCell id="hfoDs-c5PxvxWzJKswEb-157" style="edgeStyle=orthogonalEdgeStyle;rounded=0;orthogonalLoop=1;jettySize=auto;html=1;entryX=0;entryY=0.5;entryDx=0;entryDy=0;" edge="1" parent="1" source="hfoDs-c5PxvxWzJKswEb-139" target="hfoDs-c5PxvxWzJKswEb-154">
          <mxGeometry relative="1" as="geometry" />
        </mxCell>
        <mxCell id="hfoDs-c5PxvxWzJKswEb-139" value="Localization testing" style="rounded=1;whiteSpace=wrap;html=1;" vertex="1" parent="1">
          <mxGeometry x="240" y="1000" width="120" height="60" as="geometry" />
        </mxCell>
        <mxCell id="hfoDs-c5PxvxWzJKswEb-148" style="edgeStyle=orthogonalEdgeStyle;rounded=0;orthogonalLoop=1;jettySize=auto;html=1;entryX=0;entryY=0.5;entryDx=0;entryDy=0;" edge="1" parent="1" source="hfoDs-c5PxvxWzJKswEb-140" target="hfoDs-c5PxvxWzJKswEb-142">
          <mxGeometry relative="1" as="geometry" />
        </mxCell>
        <mxCell id="hfoDs-c5PxvxWzJKswEb-149" style="edgeStyle=orthogonalEdgeStyle;rounded=0;orthogonalLoop=1;jettySize=auto;html=1;entryX=0;entryY=0.5;entryDx=0;entryDy=0;" edge="1" parent="1" source="hfoDs-c5PxvxWzJKswEb-140" target="hfoDs-c5PxvxWzJKswEb-144">
          <mxGeometry relative="1" as="geometry" />
        </mxCell>
        <mxCell id="hfoDs-c5PxvxWzJKswEb-150" style="edgeStyle=orthogonalEdgeStyle;rounded=0;orthogonalLoop=1;jettySize=auto;html=1;entryX=0;entryY=0.5;entryDx=0;entryDy=0;" edge="1" parent="1" source="hfoDs-c5PxvxWzJKswEb-140" target="hfoDs-c5PxvxWzJKswEb-145">
          <mxGeometry relative="1" as="geometry" />
        </mxCell>
        <mxCell id="hfoDs-c5PxvxWzJKswEb-155" style="edgeStyle=orthogonalEdgeStyle;rounded=0;orthogonalLoop=1;jettySize=auto;html=1;entryX=0;entryY=0.5;entryDx=0;entryDy=0;" edge="1" parent="1" source="hfoDs-c5PxvxWzJKswEb-140" target="hfoDs-c5PxvxWzJKswEb-147">
          <mxGeometry relative="1" as="geometry" />
        </mxCell>
        <mxCell id="hfoDs-c5PxvxWzJKswEb-156" style="edgeStyle=orthogonalEdgeStyle;rounded=0;orthogonalLoop=1;jettySize=auto;html=1;entryX=0;entryY=0.5;entryDx=0;entryDy=0;" edge="1" parent="1" source="hfoDs-c5PxvxWzJKswEb-140" target="hfoDs-c5PxvxWzJKswEb-146">
          <mxGeometry relative="1" as="geometry" />
        </mxCell>
        <mxCell id="hfoDs-c5PxvxWzJKswEb-140" value="Language testing" style="rounded=1;whiteSpace=wrap;html=1;" vertex="1" parent="1">
          <mxGeometry x="465" y="950" width="120" height="60" as="geometry" />
        </mxCell>
        <mxCell id="hfoDs-c5PxvxWzJKswEb-142" value="Spelling testing" style="rounded=1;whiteSpace=wrap;html=1;" vertex="1" parent="1">
          <mxGeometry x="750" y="810" width="120" height="60" as="geometry" />
        </mxCell>
        <mxCell id="hfoDs-c5PxvxWzJKswEb-144" value="Grammar testing" style="rounded=1;whiteSpace=wrap;html=1;" vertex="1" parent="1">
          <mxGeometry x="750" y="880" width="120" height="60" as="geometry" />
        </mxCell>
        <mxCell id="hfoDs-c5PxvxWzJKswEb-145" value="numeric formats" style="rounded=1;whiteSpace=wrap;html=1;" vertex="1" parent="1">
          <mxGeometry x="750" y="950" width="120" height="60" as="geometry" />
        </mxCell>
        <mxCell id="hfoDs-c5PxvxWzJKswEb-146" value="measurement system testing" style="rounded=1;whiteSpace=wrap;html=1;" vertex="1" parent="1">
          <mxGeometry x="750" y="670" width="120" height="60" as="geometry" />
        </mxCell>
        <mxCell id="hfoDs-c5PxvxWzJKswEb-147" value="Translation testing" style="rounded=1;whiteSpace=wrap;html=1;" vertex="1" parent="1">
          <mxGeometry x="750" y="740" width="120" height="60" as="geometry" />
        </mxCell>
        <mxCell id="hfoDs-c5PxvxWzJKswEb-162" style="edgeStyle=orthogonalEdgeStyle;rounded=0;orthogonalLoop=1;jettySize=auto;html=1;" edge="1" parent="1" source="hfoDs-c5PxvxWzJKswEb-154" target="hfoDs-c5PxvxWzJKswEb-159">
          <mxGeometry relative="1" as="geometry" />
        </mxCell>
        <mxCell id="hfoDs-c5PxvxWzJKswEb-163" style="edgeStyle=orthogonalEdgeStyle;rounded=0;orthogonalLoop=1;jettySize=auto;html=1;entryX=0;entryY=0.5;entryDx=0;entryDy=0;" edge="1" parent="1" source="hfoDs-c5PxvxWzJKswEb-154" target="hfoDs-c5PxvxWzJKswEb-160">
          <mxGeometry relative="1" as="geometry" />
        </mxCell>
        <mxCell id="hfoDs-c5PxvxWzJKswEb-154" value="Visual testing" style="rounded=1;whiteSpace=wrap;html=1;" vertex="1" parent="1">
          <mxGeometry x="460" y="1050" width="120" height="60" as="geometry" />
        </mxCell>
        <mxCell id="hfoDs-c5PxvxWzJKswEb-159" value="Font testing" style="rounded=1;whiteSpace=wrap;html=1;" vertex="1" parent="1">
          <mxGeometry x="750" y="1030" width="120" height="60" as="geometry" />
        </mxCell>
        <mxCell id="hfoDs-c5PxvxWzJKswEb-160" value="Visual placement testing" style="rounded=1;whiteSpace=wrap;html=1;" vertex="1" parent="1">
          <mxGeometry x="750" y="1100" width="120" height="60" as="geometry" />
        </mxCell>
        <mxCell id="hfoDs-c5PxvxWzJKswEb-165" value="" style="edgeStyle=orthogonalEdgeStyle;rounded=0;orthogonalLoop=1;jettySize=auto;html=1;" edge="1" parent="1" source="hfoDs-c5PxvxWzJKswEb-167" target="hfoDs-c5PxvxWzJKswEb-168">
          <mxGeometry relative="1" as="geometry" />
        </mxCell>
        <mxCell id="hfoDs-c5PxvxWzJKswEb-166" style="edgeStyle=orthogonalEdgeStyle;rounded=0;orthogonalLoop=1;jettySize=auto;html=1;entryX=0;entryY=0.5;entryDx=0;entryDy=0;" edge="1" parent="1" source="hfoDs-c5PxvxWzJKswEb-167" target="hfoDs-c5PxvxWzJKswEb-169">
          <mxGeometry relative="1" as="geometry" />
        </mxCell>
        <mxCell id="hfoDs-c5PxvxWzJKswEb-167" value="Compatibility testing" style="rounded=1;whiteSpace=wrap;html=1;" vertex="1" parent="1">
          <mxGeometry x="240" y="1200" width="120" height="60" as="geometry" />
        </mxCell>
        <mxCell id="hfoDs-c5PxvxWzJKswEb-168" value="Hardware testing" style="rounded=1;whiteSpace=wrap;html=1;" vertex="1" parent="1">
          <mxGeometry x="445" y="1150" width="120" height="60" as="geometry" />
        </mxCell>
        <mxCell id="hfoDs-c5PxvxWzJKswEb-169" value="Software testing" style="rounded=1;whiteSpace=wrap;html=1;" vertex="1" parent="1">
          <mxGeometry x="445" y="1250" width="120" height="60" as="geometry" />
        </mxCell>
        <mxCell id="hfoDs-c5PxvxWzJKswEb-171" value="Clean room testing" style="rounded=1;whiteSpace=wrap;html=1;" vertex="1" parent="1">
          <mxGeometry x="240" y="890" width="120" height="60" as="geometry" />
        </mxCell>
        <mxCell id="hfoDs-c5PxvxWzJKswEb-181" style="edgeStyle=orthogonalEdgeStyle;rounded=0;orthogonalLoop=1;jettySize=auto;html=1;entryX=0;entryY=0.5;entryDx=0;entryDy=0;" edge="1" parent="1" source="hfoDs-c5PxvxWzJKswEb-173" target="hfoDs-c5PxvxWzJKswEb-176">
          <mxGeometry relative="1" as="geometry" />
        </mxCell>
        <mxCell id="hfoDs-c5PxvxWzJKswEb-182" style="edgeStyle=orthogonalEdgeStyle;rounded=0;orthogonalLoop=1;jettySize=auto;html=1;entryX=0;entryY=0.5;entryDx=0;entryDy=0;" edge="1" parent="1" source="hfoDs-c5PxvxWzJKswEb-173" target="hfoDs-c5PxvxWzJKswEb-177">
          <mxGeometry relative="1" as="geometry" />
        </mxCell>
        <mxCell id="hfoDs-c5PxvxWzJKswEb-183" style="edgeStyle=orthogonalEdgeStyle;rounded=0;orthogonalLoop=1;jettySize=auto;html=1;entryX=0;entryY=0.5;entryDx=0;entryDy=0;" edge="1" parent="1" source="hfoDs-c5PxvxWzJKswEb-173" target="hfoDs-c5PxvxWzJKswEb-178">
          <mxGeometry relative="1" as="geometry" />
        </mxCell>
        <mxCell id="hfoDs-c5PxvxWzJKswEb-184" style="edgeStyle=orthogonalEdgeStyle;rounded=0;orthogonalLoop=1;jettySize=auto;html=1;entryX=0;entryY=0.5;entryDx=0;entryDy=0;" edge="1" parent="1" source="hfoDs-c5PxvxWzJKswEb-173" target="hfoDs-c5PxvxWzJKswEb-179">
          <mxGeometry relative="1" as="geometry" />
        </mxCell>
        <mxCell id="hfoDs-c5PxvxWzJKswEb-173" value="Play testing" style="rounded=1;whiteSpace=wrap;html=1;" vertex="1" parent="1">
          <mxGeometry x="240" y="1710" width="120" height="60" as="geometry" />
        </mxCell>
        <mxCell id="hfoDs-c5PxvxWzJKswEb-176" value="Gross playtesting" style="rounded=1;whiteSpace=wrap;html=1;" vertex="1" parent="1">
          <mxGeometry x="410" y="1570" width="120" height="60" as="geometry" />
        </mxCell>
        <mxCell id="hfoDs-c5PxvxWzJKswEb-177" value="In-house playtesting" style="rounded=1;whiteSpace=wrap;html=1;" vertex="1" parent="1">
          <mxGeometry x="410" y="1640" width="120" height="60" as="geometry" />
        </mxCell>
        <mxCell id="hfoDs-c5PxvxWzJKswEb-178" value="Blind testing" style="rounded=1;whiteSpace=wrap;html=1;" vertex="1" parent="1">
          <mxGeometry x="410" y="1710" width="120" height="60" as="geometry" />
        </mxCell>
        <mxCell id="hfoDs-c5PxvxWzJKswEb-179" value="Final playtesting" style="rounded=1;whiteSpace=wrap;html=1;" vertex="1" parent="1">
          <mxGeometry x="410" y="1780" width="120" height="60" as="geometry" />
        </mxCell>
        <mxCell id="hfoDs-c5PxvxWzJKswEb-185" value="Soak testing" style="rounded=1;whiteSpace=wrap;html=1;" vertex="1" parent="1">
          <mxGeometry x="240" y="1570" width="120" height="60" as="geometry" />
        </mxCell>
        <mxCell id="hfoDs-c5PxvxWzJKswEb-187" value="Socail Medial integration" style="rounded=1;whiteSpace=wrap;html=1;" vertex="1" parent="1">
          <mxGeometry x="240" y="1315" width="120" height="60" as="geometry" />
        </mxCell>
        <mxCell id="hfoDs-c5PxvxWzJKswEb-189" value="Ad hoc testing" style="rounded=1;whiteSpace=wrap;html=1;" vertex="1" parent="1">
          <mxGeometry x="240" y="-530" width="120" height="60" as="geometry" />
        </mxCell>
        <mxCell id="hfoDs-c5PxvxWzJKswEb-191" value="Compliance testing" style="rounded=1;whiteSpace=wrap;html=1;" vertex="1" parent="1">
          <mxGeometry x="240" y="-330" width="120" height="60" as="geometry" />
        </mxCell>
        <mxCell id="hfoDs-c5PxvxWzJKswEb-193" value="Recovery testing" style="rounded=1;whiteSpace=wrap;html=1;" vertex="1" parent="1">
          <mxGeometry x="240" y="-630" width="120" height="60" as="geometry" />
        </mxCell>
        <mxCell id="hfoDs-c5PxvxWzJKswEb-194" value="Secutrity testing" style="rounded=1;whiteSpace=wrap;html=1;" vertex="1" parent="1">
          <mxGeometry x="240" y="-720" width="120" height="60" as="geometry" />
        </mxCell>
      </root>
    </mxGraphModel>
  </diagram>
</mxfile>
